<svg xmlns="http://www.w3.org/2000/svg" x="0px" y="0px" width="160px" height="160px"
	 viewBox="0 0 160 160" enable-background="new 0 0 160 160" xml:space="preserve">
<path d="M47.2,16.5c5.9-0.4,11.1,0.8,16.4,3.8c0.7,0.4,2.9,1.7,3.5,2.3c0.7,0.7,5.6,4.5,6.5,5.7
	c0.5,0.6,5.1,6.2,5.1,6.2s4.4-4.7,5.2-5.5c1.3-1.3,2.6-2.2,3.6-2.9c2.9-2.2,5.8-4.1,9-6c2.3-1.3,6.2-2.5,8.3-2.8
	c0.6-0.1,2.2-0.3,2.9-0.4c8-1.1,18.3,2.1,24.2,5.5c6.5,3.7,10.9,9.2,14.4,16.1c0.8,1.5,2.5,5.6,2.8,6.6c1.8,5.4,2.2,12.3,1.7,19.1
	c-0.8,10.6-5.3,21.4-10.2,28c-1,1.3-3.2,5.1-5.9,8.4c-9,10.8-22.4,24.3-35.9,32.8c-3.8,2.4-18.3,10.3-18.3,10.3s-15.1-8.4-17.5-9.9
	c-15.3-9.5-32.1-22.9-41.5-38c-3.3-5.3-7.1-10.6-9.2-17.1c-1-3-1.9-5.5-2.6-8.8C8.2,62,8.7,52.8,10.9,45.6c1-3.2,2.4-6.7,3.8-9.4
	c5.1-9.9,14.5-16.3,26.9-18.9C43.5,16.9,45.4,16.6,47.2,16.5"/>
</svg>
