<?xml version="1.0" encoding="utf-8"?>
<!-- Generator: Adobe Illustrator 17.1.0, SVG Export Plug-In . SVG Version: 6.00 Build 0)  -->
<!DOCTYPE svg PUBLIC "-//W3C//DTD SVG 1.1//EN" "http://www.w3.org/Graphics/SVG/1.1/DTD/svg11.dtd">
<svg version="1.1" id="Layer_1" xmlns="http://www.w3.org/2000/svg" xmlns:xlink="http://www.w3.org/1999/xlink" x="0px" y="0px"
	 viewBox="0 0 100 100" enable-background="new 0 0 100 100" xml:space="preserve">
<g>
	<path d="M21.2,29.7H23v12.9h-1.8V29.7z"/>
	<path d="M25.6,33.2h1.5v1.3c0.4-0.6,0.9-0.9,1.4-1.2s1.1-0.4,1.7-0.4c1.3,0,2.2,0.5,2.7,1.4c0.3,0.5,0.4,1.2,0.4,2.2v6h-1.6v-5.9
		c0-0.6-0.1-1-0.3-1.4c-0.3-0.6-0.8-0.9-1.5-0.9c-0.4,0-0.7,0-0.9,0.1c-0.4,0.1-0.8,0.4-1.1,0.8c-0.3,0.3-0.4,0.6-0.5,1
		s-0.1,0.8-0.1,1.4v4.9h-1.6V33.2z"/>
	<path d="M36,30.6h1.6v2.6h1.5v1.3h-1.5v6.1c0,0.3,0.1,0.5,0.3,0.7c0.1,0.1,0.3,0.1,0.6,0.1c0.1,0,0.2,0,0.2,0s0.2,0,0.3,0v1.3
		c-0.2,0.1-0.4,0.1-0.6,0.1s-0.4,0-0.6,0c-0.7,0-1.2-0.2-1.5-0.6S36,41.3,36,40.7v-6.2h-1.3v-1.3H36V30.6z"/>
	<path d="M46.5,33.4c0.6,0.3,1.1,0.7,1.4,1.2c0.3,0.5,0.5,1,0.6,1.7c0.1,0.4,0.1,1.1,0.1,2.1h-6.8c0,1,0.3,1.7,0.7,2.3
		c0.4,0.6,1.1,0.9,1.9,0.9c0.8,0,1.5-0.3,2-0.8c0.3-0.3,0.5-0.7,0.6-1.1h1.6c0,0.3-0.2,0.7-0.4,1.2s-0.5,0.8-0.8,1
		c-0.5,0.5-1.1,0.8-1.8,0.9c-0.4,0.1-0.8,0.1-1.3,0.1c-1.2,0-2.2-0.4-3-1.3c-0.8-0.9-1.2-2-1.2-3.6c0-1.5,0.4-2.7,1.2-3.7
		c0.8-0.9,1.9-1.4,3.2-1.4C45.2,33,45.8,33.1,46.5,33.4z M47,37.1c-0.1-0.7-0.2-1.2-0.4-1.6c-0.4-0.8-1.1-1.1-2.2-1.1
		c-0.7,0-1.3,0.3-1.8,0.8c-0.5,0.5-0.7,1.2-0.8,2H47z"/>
	<path d="M50.7,33.2h1.5v1.6c0.1-0.3,0.4-0.7,0.9-1.2s1-0.7,1.7-0.7c0,0,0.1,0,0.1,0s0.2,0,0.4,0v1.7c-0.1,0-0.2,0-0.3,0
		s-0.2,0-0.3,0c-0.8,0-1.4,0.3-1.8,0.8s-0.6,1.1-0.6,1.8v5.4h-1.6V33.2z"/>
	<path d="M56.7,33.2h1.5v1.3c0.4-0.6,0.9-0.9,1.4-1.2s1.1-0.4,1.7-0.4c1.3,0,2.2,0.5,2.7,1.4c0.3,0.5,0.4,1.2,0.4,2.2v6h-1.6v-5.9
		c0-0.6-0.1-1-0.3-1.4c-0.3-0.6-0.8-0.9-1.5-0.9c-0.4,0-0.7,0-0.9,0.1c-0.4,0.1-0.8,0.4-1.1,0.8c-0.3,0.3-0.4,0.6-0.5,1
		s-0.1,0.8-0.1,1.4v4.9h-1.6V33.2z"/>
	<path d="M72.5,33.4c0.6,0.3,1.1,0.7,1.4,1.2c0.3,0.5,0.5,1,0.6,1.7c0.1,0.4,0.1,1.1,0.1,2.1h-6.8c0,1,0.3,1.7,0.7,2.3
		c0.4,0.6,1.1,0.9,1.9,0.9c0.8,0,1.5-0.3,2-0.8c0.3-0.3,0.5-0.7,0.6-1.1h1.6c0,0.3-0.2,0.7-0.4,1.2s-0.5,0.8-0.8,1
		c-0.5,0.5-1.1,0.8-1.8,0.9c-0.4,0.1-0.8,0.1-1.3,0.1c-1.2,0-2.2-0.4-3-1.3c-0.8-0.9-1.2-2-1.2-3.6c0-1.5,0.4-2.7,1.2-3.7
		c0.8-0.9,1.9-1.4,3.2-1.4C71.2,33,71.9,33.1,72.5,33.4z M73,37.1c-0.1-0.7-0.2-1.2-0.4-1.6c-0.4-0.8-1.1-1.1-2.2-1.1
		c-0.7,0-1.3,0.3-1.8,0.8c-0.5,0.5-0.7,1.2-0.8,2H73z"/>
	<path d="M77,30.6h1.6v2.6h1.5v1.3h-1.5v6.1c0,0.3,0.1,0.5,0.3,0.7c0.1,0.1,0.3,0.1,0.6,0.1c0.1,0,0.2,0,0.2,0s0.2,0,0.3,0v1.3
		c-0.2,0.1-0.4,0.1-0.6,0.1s-0.4,0-0.6,0c-0.7,0-1.2-0.2-1.5-0.6S77,41.3,77,40.7v-6.2h-1.3v-1.3H77V30.6z"/>
	<path d="M18,51.3h9.4v1.6h-7.7v3.9h7.1v1.5h-7.1v4.4h7.8v1.5H18V51.3z"/>
	<path d="M28.8,54.8h2l2.2,3.3l2.2-3.3l1.9,0l-3.2,4.5l3.3,4.8h-2l-2.3-3.5l-2.3,3.5h-2l3.3-4.8L28.8,54.8z"/>
	<path d="M38.5,54.8h1.5v1.2c0.3-0.4,0.7-0.8,1-1c0.5-0.4,1.2-0.5,1.9-0.5c1.1,0,2,0.4,2.7,1.2s1.1,2,1.1,3.5c0,2.1-0.5,3.5-1.6,4.4
		c-0.7,0.6-1.5,0.8-2.4,0.8c-0.7,0-1.3-0.2-1.8-0.5c-0.3-0.2-0.6-0.5-0.9-0.9V68h-1.6V54.8z M44.5,62.2c0.5-0.6,0.7-1.5,0.7-2.8
		c0-0.8-0.1-1.4-0.3-1.9c-0.4-1-1.2-1.6-2.3-1.6c-1.1,0-1.9,0.5-2.3,1.6c-0.2,0.6-0.3,1.3-0.3,2.2c0,0.7,0.1,1.3,0.3,1.9
		c0.4,1,1.2,1.5,2.3,1.5C43.4,63.1,44,62.8,44.5,62.2z"/>
	<path d="M48.7,51.3h1.6v12.9h-1.6V51.3z"/>
	<path d="M59.5,55.7c0.8,0.8,1.2,2,1.2,3.6c0,1.5-0.4,2.8-1.1,3.8c-0.7,1-1.9,1.5-3.4,1.5c-1.3,0-2.3-0.4-3.1-1.3
		c-0.8-0.9-1.1-2.1-1.1-3.5c0-1.6,0.4-2.8,1.2-3.8c0.8-0.9,1.9-1.4,3.2-1.4C57.6,54.5,58.7,54.9,59.5,55.7z M58.5,62
		c0.4-0.8,0.6-1.7,0.6-2.6c0-0.9-0.1-1.6-0.4-2.1c-0.4-0.9-1.2-1.3-2.3-1.3c-1,0-1.7,0.4-2.1,1.1c-0.4,0.7-0.7,1.6-0.7,2.7
		c0,1,0.2,1.8,0.7,2.5c0.4,0.7,1.1,1,2.1,1C57.4,63.2,58.1,62.8,58.5,62z"/>
	<path d="M62.7,54.8h1.5v1.6c0.1-0.3,0.4-0.7,0.9-1.2s1-0.7,1.7-0.7c0,0,0.1,0,0.1,0s0.2,0,0.4,0v1.7c-0.1,0-0.2,0-0.3,0
		s-0.2,0-0.3,0c-0.8,0-1.4,0.3-1.8,0.8s-0.6,1.1-0.6,1.8v5.4h-1.6V54.8z"/>
	<path d="M74.5,55c0.6,0.3,1.1,0.7,1.4,1.2c0.3,0.5,0.5,1,0.6,1.7c0.1,0.4,0.1,1.1,0.1,2.1h-6.8c0,1,0.3,1.7,0.7,2.3
		c0.4,0.6,1.1,0.9,1.9,0.9c0.8,0,1.5-0.3,2-0.8c0.3-0.3,0.5-0.7,0.6-1.1h1.6c0,0.3-0.2,0.7-0.4,1.2s-0.5,0.8-0.8,1
		c-0.5,0.5-1.1,0.8-1.8,0.9c-0.4,0.1-0.8,0.1-1.3,0.1c-1.2,0-2.2-0.4-3-1.3c-0.8-0.9-1.2-2-1.2-3.6c0-1.5,0.4-2.7,1.2-3.7
		c0.8-0.9,1.9-1.4,3.2-1.4C73.2,54.6,73.9,54.7,74.5,55z M75,58.7c-0.1-0.7-0.2-1.2-0.4-1.6c-0.4-0.8-1.1-1.1-2.2-1.1
		c-0.7,0-1.3,0.3-1.8,0.8c-0.5,0.5-0.7,1.2-0.8,2H75z"/>
	<path d="M78.7,54.8h1.5v1.6c0.1-0.3,0.4-0.7,0.9-1.2s1-0.7,1.7-0.7c0,0,0.1,0,0.1,0s0.2,0,0.4,0v1.7c-0.1,0-0.2,0-0.3,0
		s-0.2,0-0.3,0c-0.8,0-1.4,0.3-1.8,0.8s-0.6,1.1-0.6,1.8v5.4h-1.6V54.8z"/>
</g>
</svg>
