<?xml version="1.0" encoding="utf-8"?>
<!-- Generator: Adobe Illustrator 17.1.0, SVG Export Plug-In . SVG Version: 6.00 Build 0)  -->
<!DOCTYPE svg PUBLIC "-//W3C//DTD SVG 1.1//EN" "http://www.w3.org/Graphics/SVG/1.1/DTD/svg11.dtd">
<svg version="1.1" id="Layer_1" xmlns="http://www.w3.org/2000/svg" xmlns:xlink="http://www.w3.org/1999/xlink" x="0px" y="0px"
	 viewBox="80 0 480 480" enable-background="new 80 0 480 480" xml:space="preserve">
<path fill="#FF0000" d="M80,240c0,132.5,107.5,240,240,240s240-107.5,240-240S452.5,0,320,0S80,107.5,80,240z M436.2,392.6
	L436.2,392.6 M436.2,392.6C404,417.6,363.7,432,320,432c-106.1,0-192-85.9-192-192c0-43.7,14.4-84,39.4-116.2L436.2,392.6
	 M470.2,359L201,89.8C233.6,63.4,274.9,48,320,48c106.1,0,192,85.9,192,192C512,285.1,496.6,326.4,470.2,359"/>
</svg>
